<?xml version="1.0" encoding="UTF-8" standalone="no"?>
<!DOCTYPE svg PUBLIC "-//W3C//DTD SVG 1.1//EN" "http://www.w3.org/Graphics/SVG/1.1/DTD/svg11.dtd"
[
<!ATTLIST g
  xmlns:vectornator CDATA #FIXED "http://vectornator.io"
  vectornator:layerName CDATA #IMPLIED >
<!ATTLIST g
  xmlns:vectornator CDATA #FIXED "http://vectornator.io"
  vectornator:mask CDATA #IMPLIED >
<!ATTLIST text
  xmlns:vectornator CDATA #FIXED "http://vectornator.io"
  vectornator:width CDATA #IMPLIED >

<!ATTLIST path
  xmlns:vectornator CDATA #FIXED "http://vectornator.io"
  vectornator:blendMode CDATA #IMPLIED >
<!ATTLIST path
  xmlns:vectornator CDATA #FIXED "http://vectornator.io"
  vectornator:shadowColor CDATA #IMPLIED >
<!ATTLIST path
  xmlns:vectornator CDATA #FIXED "http://vectornator.io"
  vectornator:shadowOpacity CDATA #IMPLIED >
<!ATTLIST path
  xmlns:vectornator CDATA #FIXED "http://vectornator.io"
  vectornator:shadowRadius CDATA #IMPLIED >
<!ATTLIST path
  xmlns:vectornator CDATA #FIXED "http://vectornator.io"
  vectornator:shadowOffset CDATA #IMPLIED >
<!ATTLIST path
  xmlns:vectornator CDATA #FIXED "http://vectornator.io"
  vectornator:shadowAngle CDATA #IMPLIED >

<!ATTLIST image
  xmlns:vectornator CDATA #FIXED "http://vectornator.io"
  vectornator:blendMode CDATA #IMPLIED >
<!ATTLIST image
  xmlns:vectornator CDATA #FIXED "http://vectornator.io"
  vectornator:shadowColor CDATA #IMPLIED >
<!ATTLIST image
  xmlns:vectornator CDATA #FIXED "http://vectornator.io"
  vectornator:shadowOpacity CDATA #IMPLIED >
<!ATTLIST image
  xmlns:vectornator CDATA #FIXED "http://vectornator.io"
  vectornator:shadowRadius CDATA #IMPLIED >
<!ATTLIST image
  xmlns:vectornator CDATA #FIXED "http://vectornator.io"
  vectornator:shadowOffset CDATA #IMPLIED >
<!ATTLIST image
  xmlns:vectornator CDATA #FIXED "http://vectornator.io"
  vectornator:shadowAngle CDATA #IMPLIED >

<!ATTLIST g
  xmlns:vectornator CDATA #FIXED "http://vectornator.io"
  vectornator:blendMode CDATA #IMPLIED >
<!ATTLIST g
  xmlns:vectornator CDATA #FIXED "http://vectornator.io"
  vectornator:shadowColor CDATA #IMPLIED >
<!ATTLIST g
  xmlns:vectornator CDATA #FIXED "http://vectornator.io"
  vectornator:shadowOpacity CDATA #IMPLIED >
<!ATTLIST g
  xmlns:vectornator CDATA #FIXED "http://vectornator.io"
  vectornator:shadowRadius CDATA #IMPLIED >
<!ATTLIST g
  xmlns:vectornator CDATA #FIXED "http://vectornator.io"
  vectornator:shadowOffset CDATA #IMPLIED >
<!ATTLIST g
  xmlns:vectornator CDATA #FIXED "http://vectornator.io"
  vectornator:shadowAngle CDATA #IMPLIED >

<!ENTITY % SVG.filter.extra.content  "| feDropShadow" >
<!ELEMENT feDropShadow EMPTY>
<!ATTLIST feDropShadow
  xmlns:svg CDATA #FIXED "http://www.w3.org/Graphics/SVG/1.1/DTD/svg11.dtd"
  dx CDATA #IMPLIED>
<!ATTLIST feDropShadow
  xmlns:svg CDATA #FIXED "http://www.w3.org/Graphics/SVG/1.1/DTD/svg11.dtd"
  dy CDATA #IMPLIED>
<!ATTLIST feDropShadow
  xmlns:svg CDATA #FIXED "http://www.w3.org/Graphics/SVG/1.1/DTD/svg11.dtd"
  stdDeviation CDATA #IMPLIED>
<!ATTLIST feDropShadow
  xmlns:svg CDATA #FIXED "http://www.w3.org/Graphics/SVG/1.1/DTD/svg11.dtd"
  flood-opacity CDATA #IMPLIED>
<!ATTLIST feDropShadow
  xmlns:svg CDATA #FIXED "http://www.w3.org/Graphics/SVG/1.1/DTD/svg11.dtd"
  in CDATA #IMPLIED>
<!ATTLIST feDropShadow
  xmlns:svg CDATA #FIXED "http://www.w3.org/Graphics/SVG/1.1/DTD/svg11.dtd"
  result CDATA #IMPLIED>
<!ATTLIST feDropShadow
  xmlns:svg CDATA #FIXED "http://www.w3.org/Graphics/SVG/1.1/DTD/svg11.dtd"
  flood-color CDATA #IMPLIED>
]
>
<!-- Created with Vectornator (http://vectornator.io/) -->
<svg height="100%" stroke-miterlimit="10" style="fill-rule:nonzero;clip-rule:evenodd;stroke-linecap:round;stroke-linejoin:round;" version="1.1" viewBox="0 0 34.4586 49.4686" width="100%" xml:space="preserve" xmlns="http://www.w3.org/2000/svg" xmlns:vectornator="http://vectornator.io" xmlns:xlink="http://www.w3.org/1999/xlink">
<defs>
<linearGradient gradientTransform="matrix(-0.352 0.936 0.936 0.352 18698.5 3400)" gradientUnits="userSpaceOnUse" id="LinearGradient" x1="3424.7" x2="3434.1" y1="-18683" y2="-18683">
<stop offset="0" stop-color="#967f6c"/>
<stop offset="1" stop-color="#9e8571"/>
</linearGradient>
<linearGradient gradientTransform="matrix(0.2829 0.9591 0.9591 -0.2829 13698.5 -1966.2)" gradientUnits="userSpaceOnUse" id="LinearGradient_2" x1="-1955" x2="-1951.3" y1="-13686" y2="-13686">
<stop offset="0" stop-color="#9c8572"/>
<stop offset="1" stop-color="#c1a48f"/>
</linearGradient>
<linearGradient gradientTransform="matrix(0.2853 0.9585 0.9585 -0.2853 13673.5 -1979.6)" gradientUnits="userSpaceOnUse" id="LinearGradient_3" x1="-1963.8" x2="-1961.6" y1="-13665" y2="-13665">
<stop offset="0" stop-color="#9c8572"/>
<stop offset="1" stop-color="#c1a48f"/>
</linearGradient>
<linearGradient gradientTransform="matrix(0.2822 0.9594 0.9594 -0.2822 13706.5 -1961.9)" gradientUnits="userSpaceOnUse" id="LinearGradient_4" x1="-1946.4" x2="-1944.7" y1="-13706" y2="-13706">
<stop offset="0" stop-color="#9c8572"/>
<stop offset="1" stop-color="#c1a48f"/>
</linearGradient>
<linearGradient gradientTransform="matrix(0.2839 0.9589 0.9589 -0.2839 13687.5 -1971.9)" gradientUnits="userSpaceOnUse" id="LinearGradient_5" x1="-1963.2" x2="-1958.5" y1="-13690" y2="-13690">
<stop offset="0" stop-color="#8c7563"/>
<stop offset="1" stop-color="#a88e79"/>
</linearGradient>
<linearGradient gradientTransform="matrix(0.722 0.6919 0.6919 -0.722 7931.22 -3362.5)" gradientUnits="userSpaceOnUse" id="LinearGradient_6" x1="-3352.3" x2="-3349.8" y1="-7930.8" y2="-7930.8">
<stop offset="0" stop-color="#736051"/>
<stop offset="1" stop-color="#8c7766"/>
</linearGradient>
<linearGradient gradientTransform="matrix(0.2807 0.9598 0.9598 -0.2807 13721.5 -1953.4)" gradientUnits="userSpaceOnUse" id="LinearGradient_7" x1="-1934.8" x2="-1932" y1="-13704" y2="-13704">
<stop offset="0" stop-color="#8c7563"/>
<stop offset="1" stop-color="#a88e79"/>
</linearGradient>
<linearGradient gradientTransform="matrix(0.2815 0.9596 0.9596 -0.2815 13713.5 -1957.9)" gradientUnits="userSpaceOnUse" id="LinearGradient_8" x1="-1936.7" x2="-1934.7" y1="-13700" y2="-13700">
<stop offset="0" stop-color="#8c7563"/>
<stop offset="1" stop-color="#a88e79"/>
</linearGradient>
<linearGradient gradientTransform="matrix(0.2863 0.9582 0.9582 -0.2863 13663.5 -1985.3)" gradientUnits="userSpaceOnUse" id="LinearGradient_9" x1="-1974.9" x2="-1968.7" y1="-13642" y2="-13642">
<stop offset="0" stop-color="#8c7563"/>
<stop offset="1" stop-color="#a88e79"/>
</linearGradient>
<linearGradient gradientTransform="matrix(0.2873 0.9578 0.9578 -0.2873 13651.5 -1991.6)" gradientUnits="userSpaceOnUse" id="LinearGradient_10" x1="-2004.3" x2="-2001.7" y1="-13627" y2="-13627">
<stop offset="0" stop-color="#9c8572"/>
<stop offset="1" stop-color="#c1a48f"/>
</linearGradient>
<linearGradient gradientTransform="matrix(0.2855 0.9584 0.9584 -0.2855 13671.5 -1980.9)" gradientUnits="userSpaceOnUse" id="LinearGradient_11" x1="-1990.9" x2="-1986" y1="-13669" y2="-13669">
<stop offset="0" stop-color="#9c8572"/>
<stop offset="1" stop-color="#c1a48f"/>
</linearGradient>
<linearGradient gradientTransform="matrix(0.2854 0.9584 0.9584 -0.2854 13672.5 -1980.3)" gradientUnits="userSpaceOnUse" id="LinearGradient_12" x1="-1979" x2="-1974.3" y1="-13668" y2="-13668">
<stop offset="0" stop-color="#9c8572"/>
<stop offset="1" stop-color="#c1a48f"/>
</linearGradient>
<linearGradient gradientTransform="matrix(0.285 0.9585 0.9585 -0.285 13676.5 -1978)" gradientUnits="userSpaceOnUse" id="LinearGradient_13" x1="-1970.9" x2="-1967" y1="-13672" y2="-13672">
<stop offset="0" stop-color="#9c8572"/>
<stop offset="1" stop-color="#c1a48f"/>
</linearGradient>
<radialGradient cx="-413.53" cy="-15898" gradientTransform="matrix(0.0516 0.9987 -0.9987 0.0516 -15842.5 1238.7)" gradientUnits="userSpaceOnUse" id="RadialGradient" r="20.815">
<stop offset="0" stop-color="#ffe7d0"/>
<stop offset="1" stop-color="#dbbfa6" stop-opacity="0"/>
</radialGradient>
<linearGradient gradientTransform="matrix(1 0 0 -1 17.524 24.7975)" gradientUnits="userSpaceOnUse" id="LinearGradient_14" x1="1.271" x2="3.5703" y1="-8.4277" y2="-5.2022">
<stop offset="0" stop-color="#909598"/>
<stop offset="1" stop-color="#4b4d4e"/>
</linearGradient>
<linearGradient gradientTransform="matrix(1 0 0 -1 17.524 24.7975)" gradientUnits="userSpaceOnUse" id="LinearGradient_15" x1="-1.6294" x2="-0.583" y1="-12.849" y2="-9.2476">
<stop offset="0" stop-color="#909598"/>
<stop offset="1" stop-color="#4b4d4e"/>
</linearGradient>
<linearGradient gradientTransform="matrix(1 0 0 -1 17.524 24.7975)" gradientUnits="userSpaceOnUse" id="LinearGradient_16" x1="-9.2427" x2="-9.9684" y1="-14.776" y2="-12.127">
<stop offset="0" stop-color="#909598"/>
<stop offset="1" stop-color="#4b4d4e"/>
</linearGradient>
<linearGradient gradientTransform="matrix(1 0 0 -1 17.524 24.7975)" gradientUnits="userSpaceOnUse" id="LinearGradient_17" x1="-13.252" x2="-13.334" y1="-10.9" y2="-5.4996">
<stop offset="0" stop-color="#909598"/>
<stop offset="1" stop-color="#4b4d4e"/>
</linearGradient>
<linearGradient gradientTransform="matrix(1 0 0 -1 17.524 24.7975)" gradientUnits="userSpaceOnUse" id="LinearGradient_18" x1="6.7217" x2="7.2552" y1="-20.133" y2="-18.361">
<stop offset="0" stop-color="#909598"/>
<stop offset="1" stop-color="#4b4d4e"/>
</linearGradient>
<linearGradient gradientTransform="matrix(1 0 0 -1 17.524 24.7975)" gradientUnits="userSpaceOnUse" id="LinearGradient_19" x1="7.6162" x2="10.114" y1="-14.053" y2="-11.476">
<stop offset="0" stop-color="#909598"/>
<stop offset="1" stop-color="#4b4d4e"/>
</linearGradient>
<linearGradient gradientTransform="matrix(1 0 0 -1 17.524 24.7975)" gradientUnits="userSpaceOnUse" id="LinearGradient_20" x1="4.9893" x2="6.4918" y1="-16.512" y2="-14.139">
<stop offset="0" stop-color="#909598"/>
<stop offset="1" stop-color="#4b4d4e"/>
</linearGradient>
<radialGradient cx="-405.63" cy="-15895" gradientTransform="matrix(0.0516 0.9987 -0.9987 0.0516 -15839.6 1230.65)" gradientUnits="userSpaceOnUse" id="RadialGradient_2" r="20.815">
<stop offset="0" stop-color="#ffe7d0"/>
<stop offset="1" stop-color="#dbbfa6" stop-opacity="0"/>
</radialGradient>
<linearGradient gradientTransform="matrix(1 0 0 -1 17.524 24.7975)" gradientUnits="userSpaceOnUse" id="LinearGradient_21" x1="9.5679" x2="10.513" y1="-6.7983" y2="-2.0974">
<stop offset="0" stop-color="#909598"/>
<stop offset="1" stop-color="#4b4d4e"/>
</linearGradient>
<linearGradient gradientTransform="matrix(1 0 0 -1 17.524 24.7975)" gradientUnits="userSpaceOnUse" id="LinearGradient_22" x1="5.7432" x2="6.5249" y1="18.883" y2="20.83">
<stop offset="0" stop-color="#909598"/>
<stop offset="1" stop-color="#4b4d4e"/>
</linearGradient>
<linearGradient gradientTransform="matrix(1 0 0 -1 17.524 24.7975)" gradientUnits="userSpaceOnUse" id="LinearGradient_23" x1="-13.69" x2="-13.69" y1="8.2002" y2="9.9002">
<stop offset="0" stop-color="#777b80"/>
<stop offset="1" stop-color="#6b7072"/>
</linearGradient>
<linearGradient gradientTransform="matrix(1 0 0 -1 17.524 24.7975)" gradientUnits="userSpaceOnUse" id="LinearGradient_24" x1="-8.5132" x2="-9.0649" y1="-1.8232" y2="1.5265">
<stop offset="0" stop-color="#909598"/>
<stop offset="1" stop-color="#4b4d4e"/>
</linearGradient>
<linearGradient gradientTransform="matrix(1 0 0 -1 17.524 24.7975)" gradientUnits="userSpaceOnUse" id="LinearGradient_25" x1="-6.7998" x2="-7.1356" y1="-6.7979" y2="-2.2968">
<stop offset="0" stop-color="#909598"/>
<stop offset="1" stop-color="#4b4d4e"/>
</linearGradient>
</defs>
<g id="Untitled" vectornator:layerName="Untitled">
<g opacity="1">
<g opacity="1">
<g opacity="1">
<clipPath id="ClipPath">
<path d="M32.4241 17.7977C32.3241 17.1977 32.1571 15.7647 31.9241 13.4977C31.7571 12.1977 31.5241 11.3307 31.2241 10.8977C31.0911 10.6977 30.7071 9.03066 30.0741 5.89766C29.5071 2.99766 28.8741 1.28066 28.1741 0.747658C27.4741 0.214658 26.6081 0.0976581 25.5741 0.397658C23.7411 0.897658 22.6571 1.16466 22.3241 1.19766L13.3741 2.09766L11.7741 2.54766C11.1071 2.71466 10.2081 3.11466 9.07411 3.74766C7.70711 4.54766 6.64011 5.13066 5.87411 5.49766C4.80711 5.99766 3.89111 6.96466 3.12411 8.39766C2.45711 9.63066 1.95711 11.0647 1.62411 12.6977C1.55711 13.0977 1.20711 14.2147 0.574109 16.0477C0.207109 17.0477 0.157109 17.9647 0.424109 18.7977C0.824109 20.0977 1.02411 21.1477 1.02411 21.9477C1.02411 22.1147 1.12411 22.7807 1.32411 23.9477C1.45711 24.9807 1.49111 26.1977 1.42411 27.5977C1.29111 29.9977 1.15711 31.7147 1.02411 32.7477L0.624109 34.7977C0.391109 35.7977 0.491109 37.2647 0.924109 39.1977C1.35811 41.0977 1.92411 42.5647 2.62411 43.5977C3.52411 44.8307 3.99111 45.4647 4.02411 45.4977C4.32411 45.8647 4.94111 46.3477 5.87411 46.9477C6.57411 47.4137 7.99111 47.6147 10.1241 47.5477C12.5911 47.4817 14.4241 47.6307 15.6241 47.9977C19.1911 49.0307 22.1571 49.0807 24.5241 48.1477C25.2911 47.8477 26.4071 47.4977 27.8741 47.0977C29.1411 46.4647 30.2911 45.2477 31.3241 43.4477C33.1241 40.2477 34.0241 35.9977 34.0241 30.6977C34.0241 27.8307 33.4911 23.5307 32.4241 17.7977Z" fill-rule="evenodd"/>
</clipPath>
<g clip-path="url(#ClipPath)">
<path d="M32.4241 17.7977C33.4911 23.5307 34.0241 27.8317 34.0241 30.6977C34.0241 35.9977 33.1241 40.2477 31.3241 43.4477C30.2901 45.2477 29.1401 46.4647 27.8741 47.0977C26.4071 47.4977 25.2911 47.8477 24.5241 48.1477C22.1571 49.0817 19.1911 49.0307 15.6241 47.9977C14.4241 47.6307 12.5911 47.4807 10.1241 47.5477C7.99111 47.6147 6.57411 47.4147 5.87411 46.9477C4.94111 46.3477 4.32411 45.8647 4.02411 45.4977C3.99111 45.4647 3.52411 44.8307 2.62411 43.5977C1.92411 42.5647 1.35711 41.0977 0.924108 39.1977C0.491108 37.2637 0.391108 35.7977 0.624108 34.7977L1.02411 32.7477C1.15711 31.7147 1.29111 29.9977 1.42411 27.5977C1.49111 26.1977 1.45811 24.9807 1.32411 23.9477C1.12411 22.7807 1.02411 22.1147 1.02411 21.9477C1.02411 21.1477 0.824108 20.0977 0.424108 18.7977C0.157108 17.9647 0.208108 17.0477 0.574108 16.0477C1.20711 14.2147 1.55711 13.0977 1.62411 12.6977C1.95711 11.0647 2.45711 9.63066 3.12411 8.39766C3.89111 6.96466 4.80711 5.99766 5.87411 5.49766C6.64111 5.13066 7.70711 4.54766 9.07411 3.74766C10.2071 3.11466 11.1071 2.71466 11.7741 2.54766L13.3741 2.09766L22.3241 1.19766C22.6571 1.16366 23.7411 0.897656 25.5741 0.397656C26.6071 0.0976563 27.4741 0.214656 28.1741 0.747656C28.8741 1.28066 29.5071 2.99766 30.0741 5.89766C30.7071 9.03066 31.0911 10.6977 31.2241 10.8977C31.5241 11.3317 31.7571 12.1977 31.9241 13.4977C32.1571 15.7647 32.3241 17.1977 32.4241 17.7977Z" fill="#b4b8bb" fill-rule="evenodd" opacity="1" stroke="none"/>
</g>
</g>
<g opacity="1">
<clipPath id="ClipPath_2">
<path d="M32.4241 17.7977C32.3241 17.1977 32.1571 15.7647 31.9241 13.4977C31.7571 12.1977 31.5241 11.3307 31.2241 10.8977C31.0911 10.6977 30.7071 9.03066 30.0741 5.89766C29.5071 2.99766 28.8741 1.28066 28.1741 0.747658C27.4741 0.214658 26.6081 0.0976581 25.5741 0.397658C23.7411 0.897658 22.6571 1.16466 22.3241 1.19766L13.3741 2.09766L11.7741 2.54766C11.1071 2.71466 10.2081 3.11466 9.07411 3.74766C7.70711 4.54766 6.64011 5.13066 5.87411 5.49766C4.80711 5.99766 3.89111 6.96466 3.12411 8.39766C2.45711 9.63066 1.95711 11.0647 1.62411 12.6977C1.55711 13.0977 1.20711 14.2147 0.574109 16.0477C0.207109 17.0477 0.157109 17.9647 0.424109 18.7977C0.824109 20.0977 1.02411 21.1477 1.02411 21.9477C1.02411 22.1147 1.12411 22.7807 1.32411 23.9477C1.45711 24.9807 1.49111 26.1977 1.42411 27.5977C1.29111 29.9977 1.15711 31.7147 1.02411 32.7477L0.624109 34.7977C0.391109 35.7977 0.491109 37.2647 0.924109 39.1977C1.35811 41.0977 1.92411 42.5647 2.62411 43.5977C3.52411 44.8307 3.99111 45.4647 4.02411 45.4977C4.32411 45.8647 4.94111 46.3477 5.87411 46.9477C6.57411 47.4137 7.99111 47.6147 10.1241 47.5477C12.5911 47.4817 14.4241 47.6307 15.6241 47.9977C19.1911 49.0307 22.1571 49.0807 24.5241 48.1477C25.2911 47.8477 26.4071 47.4977 27.8741 47.0977C29.1411 46.4647 30.2911 45.2477 31.3241 43.4477C33.1241 40.2477 34.0241 35.9977 34.0241 30.6977C34.0241 27.8307 33.4911 23.5307 32.4241 17.7977Z" fill-rule="evenodd"/>
</clipPath>
<g clip-path="url(#ClipPath_2)">
<path d="M28.574 9.59746C28.307 7.33046 28.14 5.49746 28.074 4.09746C28.041 2.66346 27.791 1.39746 27.324 0.297459L28.174 0.747459C28.874 1.28046 29.507 2.99746 30.074 5.89746C30.707 9.03046 31.091 10.6975 31.224 10.8975C31.557 11.3645 31.824 12.1975 32.024 13.3975C32.124 14.0975 32.324 15.4645 32.624 17.4975C33.391 21.2645 33.957 25.5635 34.324 30.3975C34.557 32.7645 34.557 34.6805 34.324 36.1475C33.957 38.6805 32.957 41.1145 31.324 43.4475C30.124 45.1805 28.841 46.3815 27.474 47.0475C25.941 47.5805 24.791 47.9975 24.024 48.2975C23.058 48.6975 21.674 48.7975 19.874 48.5975C19.374 48.5305 17.591 48.2145 14.524 47.6475C13.458 47.4805 11.791 47.4475 9.52401 47.5475C7.85701 47.6475 6.64101 47.4475 5.87401 46.9475C4.94101 46.3475 4.32401 45.8645 4.02401 45.4975C3.99101 45.4645 3.52401 44.8305 2.62401 43.5975C1.92401 42.5635 1.35701 41.0975 0.924009 39.1975C0.490009 37.2645 0.390009 35.7975 0.624009 34.7975L1.02401 32.7475C1.15701 31.7145 1.29101 29.9975 1.42401 27.5975L1.47401 25.7475C1.84101 25.9805 2.44101 26.2805 3.27401 26.6475C4.00701 27.0805 4.52401 27.6305 4.82401 28.2975C5.25701 29.3645 5.65701 30.5145 6.02401 31.7475C6.42401 33.1475 6.62401 34.1475 6.62401 34.7475C6.62401 35.9145 6.37401 37.3135 5.87401 38.9475C5.67401 39.6805 5.82401 40.2145 6.32401 40.5475L7.22401 40.7975C7.99101 41.0305 8.75701 41.3475 9.52401 41.7475C10.524 42.2805 12.074 42.2145 14.174 41.5475C14.841 41.3145 15.507 41.2145 16.174 41.2475C16.907 41.2805 17.407 41.2645 17.674 41.1975C18.174 41.0645 18.691 40.3975 19.224 39.1975C19.724 38.0645 20.274 37.4645 20.874 37.3975C21.641 37.3305 22.341 36.8475 22.974 35.9475C23.607 34.8805 24.024 34.1645 24.224 33.7975C24.491 33.2975 24.607 32.9645 24.574 32.7975C24.507 32.4975 24.441 32.1305 24.374 31.6975C24.308 31.0305 24.407 30.1975 24.674 29.1975C24.941 28.1975 25.274 27.4645 25.674 26.9975C26.208 26.3645 26.357 24.8645 26.124 22.4975C27.124 20.5305 27.774 18.6475 28.074 16.8475C28.541 14.1805 28.708 11.7645 28.574 9.59746Z" fill="#9e8571" fill-rule="evenodd" opacity="1" stroke="none"/>
<path d="M26.974 22.5975L26.124 22.4975C26.724 22.1975 27.307 21.8135 27.874 21.3475C29.074 20.4145 29.707 19.5315 29.774 18.6975C29.707 18.0975 29.657 17.5145 29.624 16.9475C29.524 15.8815 29.574 14.9805 29.774 14.2475C29.974 13.5805 30.124 13.2475 30.224 13.2475C30.29 13.2805 30.324 13.2305 30.324 13.0975C30.324 12.8645 30.791 12.4645 31.724 11.8975C31.891 12.3645 32.057 13.1305 32.224 14.1975C32.557 16.3305 32.724 17.4305 32.724 17.4975C33.891 23.7645 34.474 28.8135 34.474 32.6475C34.474 34.7475 34.357 36.3645 34.124 37.4975C33.791 39.0975 33.057 40.8645 31.924 42.7975C30.924 44.6305 29.591 45.9805 27.924 46.8475C26.091 47.5145 24.791 47.9975 24.024 48.2975C23.091 48.6645 21.791 48.7305 20.124 48.4975C18.025 48.0675 16.334 47.8345 15.049 47.7975C13.762 47.7545 12.246 47.8625 10.499 48.1225C8.75301 48.3855 7.94501 48.2265 8.07401 47.6475C9.04101 47.1145 9.79101 46.4145 10.324 45.5475L11.774 44.7475C12.274 44.4805 13.024 44.4305 14.024 44.5975C15.057 44.7645 15.807 44.7145 16.274 44.4475C16.774 44.1805 17.057 44.0805 17.124 44.1475C17.324 44.4145 17.807 44.5645 18.574 44.5975C19.374 44.6645 19.858 44.5145 20.024 44.1475C20.157 43.8145 20.474 43.6975 20.974 43.7975C21.707 43.9305 22.807 43.8145 24.274 43.4475C25.641 43.1145 26.474 42.7975 26.774 42.4975C27.441 41.8305 27.774 40.7475 27.774 39.2475C27.774 38.5145 27.891 37.9635 28.124 37.5975C28.591 37.1645 29.007 36.6975 29.374 36.1975C29.841 35.5645 30.107 34.9305 30.174 34.2975L30.174 32.3475C30.174 31.9805 29.907 31.0805 29.374 29.6475C28.907 28.4145 28.791 27.5305 29.024 26.9975C29.591 25.7305 29.374 24.5475 28.374 23.4475C28.041 23.0475 27.574 22.7645 26.974 22.5975Z" fill="#7f6859" fill-rule="evenodd" opacity="1" stroke="none"/>
<g opacity="1">
<path d="M32.424 17.9475C32.557 17.9145 32.657 17.7805 32.724 17.5475C32.857 18.3145 33.207 20.1305 33.774 22.9975C34.274 25.9305 34.524 28.3975 34.524 30.3975L34.524 34.2475L33.574 33.9475L33.074 32.3475C32.907 31.8475 32.774 31.0975 32.674 30.0975C32.574 29.3305 32.441 28.8305 32.274 28.5975C31.474 27.5635 31.157 26.3805 31.324 25.0475C31.357 24.5475 31.491 24.1975 31.724 23.9975C31.791 23.9305 31.707 23.6975 31.474 23.2975C31.207 22.8305 30.341 22.4975 28.874 22.2975L26.774 22.1475C28.274 21.1805 29.407 20.2645 30.174 19.3975C30.545 18.9735 30.845 18.7145 31.074 18.6225C31.536 18.2975 31.986 18.0725 32.424 17.9475Z" fill="#635042" fill-rule="evenodd" opacity="1" stroke="none"/>
<path d="M23.924 48.9975C22.991 49.3675 21.474 49.3585 19.374 48.9725C17.273 48.5795 15.557 48.3625 14.224 48.3225C12.891 48.2855 11.624 48.1605 10.424 47.9475L10.974 47.3475L13.224 46.1975C14.157 45.7305 15.257 45.5645 16.524 45.6975C17.257 45.7975 18.257 45.9645 19.524 46.1975L21.624 46.3475L22.424 46.1975C23.291 46.0305 24.324 45.7475 25.524 45.3475C27.224 44.7815 28.174 44.2645 28.374 43.7975C28.541 43.3975 28.907 43.1305 29.474 42.9975C30.141 42.8645 30.591 42.6475 30.824 42.3475L33.224 39.4475C33.757 38.8145 34.19 37.0975 34.524 34.2975C34.391 37.9645 33.691 40.9145 32.424 43.1475C31.391 44.9475 29.957 46.3475 28.124 47.3475C26.091 48.1475 24.691 48.6975 23.924 48.9975Z" fill="#635042" fill-rule="evenodd" opacity="1" stroke="none"/>
</g>
<path d="M23.824 2.69746C24.39 2.69746 24.791 2.83046 25.024 3.09746C25.191 3.33046 25.274 3.73046 25.274 4.29746C25.274 4.86446 25.357 5.86446 25.524 7.29746C25.657 8.76446 25.774 9.61446 25.874 9.84746C26.007 10.1145 26.091 10.6805 26.124 11.5475C26.191 12.4475 26.157 13.0975 26.024 13.4975C25.857 14.0635 25.374 14.9475 24.574 16.1475C25.041 17.2475 24.991 18.2975 24.424 19.2975C24.224 19.6305 23.907 20.3805 23.474 21.5475C23.141 22.4145 22.824 22.9975 22.524 23.2975C22.157 23.6645 21.691 24.4975 21.124 25.7975C20.624 26.9305 20.157 27.5805 19.724 27.7475C18.557 28.5145 17.524 29.1805 16.624 29.7475C14.958 30.8475 13.657 31.3975 12.724 31.3975C11.757 31.3975 10.724 31.1975 9.62401 30.7975L8.22401 30.1975C7.99101 28.9645 7.30701 27.9145 6.17401 27.0475C5.50701 26.5145 5.10701 25.9645 4.97401 25.3975C4.67401 24.1305 4.42401 23.2645 4.22401 22.7975C3.52401 21.3975 3.07401 20.4475 2.87401 19.9475C2.57401 19.1805 2.50701 18.3645 2.67401 17.4975L3.27401 13.7475C3.30801 13.2475 3.52401 12.6145 3.92401 11.8475C4.42401 10.8805 4.69101 10.3305 4.72401 10.1975C4.82401 9.83046 5.05701 9.39746 5.42401 8.89746C5.85701 8.26446 6.34101 7.81446 6.87401 7.54746C8.07401 6.98146 9.00701 6.33046 9.67401 5.59746C10.574 4.76446 11.624 4.28046 12.824 4.14746C14.857 4.01446 16.307 3.86446 17.174 3.69746C17.674 3.59746 18.341 3.56446 19.174 3.59746C20.174 3.59746 20.924 3.58046 21.424 3.54746C22.024 3.51446 22.49 3.36446 22.824 3.09746C23.124 2.83046 23.458 2.69746 23.824 2.69746Z" fill="#dbbfa6" fill-rule="evenodd" opacity="1" stroke="none"/>
<path d="M0.62401 34.7975L1.02401 32.7475C1.15701 31.7145 1.29101 29.9975 1.42401 27.5975L1.47401 25.7475C1.84101 25.9805 2.44101 26.2805 3.27401 26.6475C4.00701 27.0805 4.52401 27.6305 4.82401 28.2975C5.25701 29.3645 5.65701 30.5145 6.02401 31.7475C6.42401 33.1475 6.62401 34.1475 6.62401 34.7475C6.62401 35.9145 6.37401 37.3135 5.87401 38.9475C5.77401 39.3475 5.82401 39.7475 6.02401 40.1475C6.12401 40.3475 6.22401 40.5645 6.32401 40.7975C5.62401 41.1305 5.17401 41.2645 4.97401 41.1975C2.90701 40.2315 1.50701 39.3305 0.77401 38.4975C0.47401 36.8305 0.42401 35.5975 0.62401 34.7975Z" fill="url(#LinearGradient)" fill-rule="evenodd" opacity="1" stroke="none"/>
<path d="M19.474 30.6475C20.407 30.3475 20.974 30.4645 21.174 30.9975C21.341 31.3975 21.257 31.8475 20.924 32.3475C20.058 33.6805 19.157 34.2975 18.224 34.1975C17.724 34.1305 17.657 33.5645 18.024 32.4975C18.424 31.4645 18.907 30.8475 19.474 30.6475Z" fill="url(#LinearGradient_2)" fill-rule="evenodd" opacity="1" stroke="none"/>
<path d="M15.724 38.3975C15.324 38.2975 15.224 37.9645 15.424 37.3975C15.624 36.7975 16.007 36.4145 16.574 36.2475C16.807 36.1475 16.791 36.5145 16.524 37.3475C16.291 38.1475 16.024 38.4975 15.724 38.3975Z" fill="url(#LinearGradient_3)" fill-rule="evenodd" opacity="1" stroke="none"/>
<path d="M8.42401 38.3975C8.82401 38.7305 9.00701 39.0305 8.97401 39.2975C8.94101 39.5975 8.64101 39.7475 8.07401 39.7475C7.47401 39.7475 7.27401 39.4305 7.47401 38.7975C7.67401 38.1645 7.99101 38.0305 8.42401 38.3975Z" fill="url(#LinearGradient_4)" fill-rule="evenodd" opacity="1" stroke="none"/>
<path d="M5.07401 33.3475C5.47401 33.9805 5.30701 35.0975 4.57401 36.6975L3.97401 36.9475C3.74101 37.0475 3.57401 36.6805 3.47401 35.8475C3.40701 34.8135 3.32401 34.0975 3.22401 33.6975C3.12401 33.1315 3.35701 32.8475 3.92401 32.8475C4.42401 32.8145 4.80801 32.9815 5.07401 33.3475Z" fill="url(#LinearGradient_5)" fill-rule="evenodd" opacity="1" stroke="none"/>
<path d="M24.524 43.7975C25.024 43.5975 25.407 43.6475 25.674 43.9475C25.907 44.2475 25.924 44.5305 25.724 44.7975C25.357 45.2645 24.507 45.4305 23.174 45.2975C22.674 45.2645 22.591 45.0805 22.924 44.7475C23.224 44.4475 23.757 44.1305 24.524 43.7975Z" fill="url(#LinearGradient_6)" fill-rule="evenodd" opacity="1" stroke="none"/>
<path d="M26.974 36.0975C27.574 36.0305 27.824 36.2805 27.724 36.8475C27.657 37.1475 27.491 37.5975 27.224 38.1975C27.091 38.4975 26.757 38.7145 26.224 38.8475C25.657 38.9475 25.224 38.8805 24.924 38.6475C24.591 38.4145 24.674 37.9645 25.174 37.2975C25.674 36.6305 26.274 36.2315 26.974 36.0975Z" fill="url(#LinearGradient_7)" fill-rule="evenodd" opacity="1" stroke="none"/>
<path d="M23.074 39.8475C23.64 39.7805 23.874 40.0145 23.774 40.5475C23.708 41.1145 23.274 41.5305 22.474 41.7975C21.674 42.0645 21.441 41.8305 21.774 41.0975C22.107 40.3645 22.541 39.9475 23.074 39.8475Z" fill="url(#LinearGradient_8)" fill-rule="evenodd" opacity="1" stroke="none"/>
<path d="M28.674 28.4975C28.774 28.7305 28.807 29.2805 28.774 30.1475C28.741 30.9805 28.657 31.6805 28.524 32.2475C28.391 32.7805 28.191 33.1145 27.924 33.2475C27.691 33.3475 27.257 33.3305 26.624 33.1975C26.058 33.0975 25.757 32.5305 25.724 31.4975C25.691 30.6305 25.824 29.8305 26.124 29.0975C26.424 28.4305 26.824 27.9975 27.324 27.7975C27.891 27.5645 28.341 27.7975 28.674 28.4975Z" fill="url(#LinearGradient_9)" fill-rule="evenodd" opacity="1" stroke="none"/>
<path d="M23.824 4.39746C24.557 4.23046 24.774 4.61446 24.474 5.54746C24.207 6.48146 23.707 6.94746 22.974 6.94746C22.241 6.94746 21.991 6.58046 22.224 5.84746C22.458 5.08046 22.991 4.59746 23.824 4.39746Z" fill="url(#LinearGradient_10)" fill-rule="evenodd" opacity="1" stroke="none"/>
<path d="M3.37401 13.5975C3.77401 13.2645 4.17401 13.4475 4.57401 14.1475C4.97401 14.7475 5.17401 15.3305 5.17401 15.8975C5.17401 16.5645 5.10701 17.0145 4.97401 17.2475C4.74101 17.6145 4.24101 17.7645 3.47401 17.6975C2.70701 17.6645 2.39101 17.0475 2.52401 15.8475C2.62401 14.7475 2.90701 13.9975 3.37401 13.5975Z" fill="url(#LinearGradient_11)" fill-rule="evenodd" opacity="1" stroke="none"/>
<path d="M8.32401 23.8975C8.95801 23.3645 9.52401 23.6305 10.024 24.6975C10.491 25.7645 10.491 26.5805 10.024 27.1475C9.29101 28.1145 8.52401 27.9645 7.72401 26.6975C7.12401 25.6975 7.32401 24.7645 8.32401 23.8975Z" fill="url(#LinearGradient_12)" fill-rule="evenodd" opacity="1" stroke="none"/>
<path d="M10.724 29.0975C11.624 29.0975 12.074 29.6975 12.074 30.8975C12.074 31.6305 11.724 32.1305 11.024 32.3975C10.324 32.6645 9.82401 32.4975 9.52401 31.8975C9.22401 31.2305 9.17401 30.6145 9.37401 30.0475C9.60701 29.4145 10.058 29.0975 10.724 29.0975Z" fill="url(#LinearGradient_13)" fill-rule="evenodd" opacity="1" stroke="none"/>
<path d="M23.824 2.69746C24.391 2.69746 24.791 2.83046 25.024 3.09746C25.191 3.33046 25.274 3.73046 25.274 4.29746C25.274 4.86446 25.357 5.86446 25.524 7.29746C25.657 8.76446 25.774 9.61446 25.874 9.84746C26.007 10.1145 26.091 10.6805 26.124 11.5475C26.19 12.4475 26.157 13.0975 26.024 13.4975C25.857 14.0635 25.374 14.9475 24.574 16.1475C25.041 17.2475 24.991 18.2975 24.424 19.2975C24.224 19.6305 23.907 20.3805 23.474 21.5475C23.141 22.4145 22.824 22.9975 22.524 23.2975C22.157 23.6645 21.691 24.4975 21.124 25.7975C20.624 26.9305 20.157 27.5805 19.724 27.7475C18.557 28.5145 17.524 29.1805 16.624 29.7475C14.957 30.8475 13.657 31.3975 12.724 31.3975C11.757 31.3975 10.724 31.1975 9.62401 30.7975L8.22401 30.1975C7.99101 28.9645 7.30701 27.9145 6.17401 27.0475C5.50701 26.5145 5.10801 25.9645 4.97401 25.3975C4.67401 24.1305 4.42401 23.2645 4.22401 22.7975C3.52401 21.3975 3.07401 20.4475 2.87401 19.9475C2.57401 19.1805 2.50701 18.3645 2.67401 17.4975L3.27401 13.7475C3.30701 13.2475 3.52401 12.6145 3.92401 11.8475C4.42401 10.8815 4.69101 10.3305 4.72401 10.1975C4.82401 9.83046 5.05701 9.39746 5.42401 8.89746C5.85801 8.26446 6.34101 7.81446 6.87401 7.54746C8.07401 6.98046 9.00701 6.33046 9.67401 5.59746C10.574 4.76446 11.624 4.28146 12.824 4.14746C14.858 4.01446 16.307 3.86446 17.174 3.69746C17.674 3.59746 18.341 3.56446 19.174 3.59746C20.174 3.59746 20.924 3.58046 21.424 3.54746C22.024 3.51446 22.491 3.36446 22.824 3.09746C23.124 2.83046 23.457 2.69746 23.824 2.69746Z" fill="url(#RadialGradient)" fill-rule="evenodd" opacity="1" stroke="none"/>
<path d="M28.574 9.59746C28.307 7.33046 28.141 5.49746 28.074 4.09746C28.041 2.66446 27.791 1.39746 27.324 0.297459L28.174 0.747459C28.874 1.28046 29.507 2.99746 30.074 5.89746C30.707 9.03046 31.091 10.6975 31.224 10.8975C31.557 11.3645 31.824 12.1975 32.024 13.3975C32.124 14.0975 32.324 15.4635 32.624 17.4975C33.391 21.2645 33.957 25.5635 34.324 30.3975C34.557 32.7645 34.557 34.6805 34.324 36.1475C33.957 38.6805 32.957 41.1145 31.324 43.4475C30.124 45.1805 28.841 46.3815 27.474 47.0475C25.941 47.5805 24.791 47.9975 24.024 48.2975C23.057 48.6975 21.674 48.7975 19.874 48.5975C19.374 48.5315 17.591 48.2145 14.524 47.6475C13.457 47.4805 11.791 47.4475 9.52401 47.5475C7.85701 47.6475 6.64101 47.4475 5.87401 46.9475C4.94001 46.3475 4.32401 45.8645 4.02401 45.4975C3.99101 45.4635 3.52401 44.8305 2.62401 43.5975C1.92401 42.5645 1.35701 41.0975 0.924009 39.1975C0.491009 37.2645 0.391009 35.7975 0.624009 34.7975L1.02401 32.7475C1.15701 31.7135 1.29101 29.9975 1.42401 27.5975L1.47401 25.7475C1.84101 25.9805 2.44001 26.2805 3.27401 26.6475C4.00701 27.0805 4.52401 27.6305 4.82401 28.2975C5.25801 29.3645 5.65701 30.5145 6.02401 31.7475C6.42401 33.1475 6.62401 34.1475 6.62401 34.7475C6.62401 35.9145 6.37401 37.3135 5.87401 38.9475C5.67401 39.6805 5.82401 40.2145 6.32401 40.5475L7.22401 40.7975C7.99101 41.0305 8.75701 41.3475 9.52401 41.7475C10.524 42.2805 12.074 42.2135 14.174 41.5475C14.841 41.3145 15.507 41.2145 16.174 41.2475C16.907 41.2805 17.407 41.2645 17.674 41.1975C18.174 41.0645 18.691 40.3975 19.224 39.1975C19.724 38.0645 20.274 37.4645 20.874 37.3975C21.641 37.3305 22.341 36.8475 22.974 35.9475C23.607 34.8805 24.024 34.1645 24.224 33.7975C24.491 33.2975 24.607 32.9645 24.574 32.7975C24.508 32.4975 24.441 32.1305 24.374 31.6975C24.307 31.0305 24.407 30.1975 24.674 29.1975C24.941 28.1975 25.274 27.4645 25.674 26.9975C26.207 26.3645 26.357 24.8645 26.124 22.4975C27.124 20.5305 27.774 18.6475 28.074 16.8475C28.541 14.1805 28.707 11.7645 28.574 9.59746Z" fill="#717679" fill-rule="evenodd" opacity="1" stroke="none"/>
<path d="M26.974 22.5975L26.124 22.4975C26.724 22.1975 27.307 21.8135 27.874 21.3475C29.074 20.4145 29.707 19.5315 29.774 18.6975C29.707 18.0975 29.657 17.5145 29.624 16.9475C29.524 15.8815 29.574 14.9805 29.774 14.2475C29.974 13.5805 30.124 13.2475 30.224 13.2475C30.29 13.2805 30.324 13.2305 30.324 13.0975C30.324 12.8645 30.791 12.4645 31.724 11.8975C31.891 12.3645 32.057 13.1305 32.224 14.1975C32.557 16.3305 32.724 17.4305 32.724 17.4975C33.891 23.7645 34.474 28.8135 34.474 32.6475C34.474 34.7475 34.357 36.3645 34.124 37.4975C33.791 39.0975 33.057 40.8645 31.924 42.7975C30.924 44.6305 29.591 45.9805 27.924 46.8475C26.091 47.5145 24.791 47.9975 24.024 48.2975C23.091 48.6645 21.791 48.7305 20.124 48.4975C18.025 48.0675 16.334 47.8345 15.049 47.7975C13.762 47.7545 12.246 47.8625 10.499 48.1225C8.75301 48.3855 7.94501 48.2265 8.07401 47.6475C9.04101 47.1145 9.79101 46.4145 10.324 45.5475L11.774 44.7475C12.274 44.4805 13.024 44.4305 14.024 44.5975C15.057 44.7645 15.807 44.7145 16.274 44.4475C16.774 44.1805 17.057 44.0805 17.124 44.1475C17.324 44.4145 17.807 44.5645 18.574 44.5975C19.374 44.6645 19.858 44.5145 20.024 44.1475C20.157 43.8145 20.474 43.6975 20.974 43.7975C21.707 43.9305 22.807 43.8145 24.274 43.4475C25.641 43.1145 26.474 42.7975 26.774 42.4975C27.441 41.8305 27.774 40.7475 27.774 39.2475C27.774 38.5145 27.891 37.9635 28.124 37.5975C28.591 37.1645 29.007 36.6975 29.374 36.1975C29.841 35.5645 30.107 34.9305 30.174 34.2975L30.174 32.3475C30.174 31.9805 29.907 31.0805 29.374 29.6475C28.907 28.4145 28.791 27.5305 29.024 26.9975C29.591 25.7305 29.374 24.5475 28.374 23.4475C28.041 23.0475 27.574 22.7645 26.974 22.5975Z" fill="#5d6164" fill-rule="evenodd" opacity="1" stroke="none"/>
<g opacity="1">
<path d="M32.424 17.9475C32.557 17.9145 32.657 17.7805 32.724 17.5475C32.857 18.3145 33.207 20.1305 33.774 22.9975C34.274 25.9305 34.524 28.3975 34.524 30.3975L34.524 34.2475L33.574 33.9475L33.074 32.3475C32.907 31.8475 32.774 31.0975 32.674 30.0975C32.574 29.3305 32.441 28.8305 32.274 28.5975C31.474 27.5645 31.157 26.3815 31.324 25.0475C31.358 24.5475 31.491 24.1975 31.724 23.9975C31.79 23.9305 31.707 23.6975 31.474 23.2975C31.207 22.8305 30.341 22.4975 28.874 22.2975L26.774 22.1475C28.274 21.1805 29.407 20.2645 30.174 19.3975C30.541 18.9635 30.841 18.7135 31.074 18.6475C31.541 18.3145 31.991 18.0805 32.424 17.9475Z" fill="#43474a" fill-rule="evenodd" opacity="1" stroke="none"/>
<path d="M22.424 46.1975C23.291 46.0305 24.324 45.7475 25.524 45.3475C27.224 44.7815 28.174 44.2645 28.374 43.7975C28.541 43.3975 28.907 43.1305 29.474 42.9975C30.141 42.8645 30.591 42.6475 30.824 42.3475L33.224 39.4475C33.757 38.8145 34.19 37.0975 34.524 34.2975C34.391 37.9645 33.691 40.9145 32.424 43.1475C31.391 44.9475 29.957 46.3475 28.124 47.3475C26.091 48.1475 24.69 48.6975 23.924 48.9975C22.991 49.3675 21.474 49.3585 19.374 48.9725C17.273 48.5795 15.557 48.3625 14.224 48.3225C12.891 48.2855 11.624 48.1605 10.424 47.9475L10.974 47.3475L13.224 46.1975C14.157 45.7305 15.257 45.5645 16.524 45.6975C17.257 45.7975 18.257 45.9645 19.524 46.1975L21.624 46.3475C21.624 46.3475 22.424 46.1975 22.424 46.1975Z" fill="#43474a" fill-rule="evenodd" opacity="1" stroke="none"/>
</g>
<path d="M26.124 11.5475C26.19 12.4475 26.157 13.0975 26.024 13.4975C25.857 14.0635 25.374 14.9475 24.574 16.1475C25.041 17.2475 24.991 18.2975 24.424 19.2975C24.224 19.6305 23.907 20.3805 23.474 21.5475C23.141 22.4145 22.824 22.9975 22.524 23.2975C22.157 23.6645 21.691 24.4975 21.124 25.7975C20.624 26.9305 20.157 27.5805 19.724 27.7475C18.557 28.5145 17.524 29.1805 16.624 29.7475C14.957 30.8475 13.657 31.3975 12.724 31.3975C11.757 31.3975 10.724 31.1975 9.62401 30.7975L8.22401 30.1975C7.99101 28.9645 7.30701 27.9145 6.17401 27.0475C5.50701 26.5145 5.10801 25.9645 4.97401 25.3975C4.67401 24.1305 4.42401 23.2645 4.22401 22.7975C3.52401 21.3975 3.07401 20.4475 2.87401 19.9475C2.57401 19.1805 2.50701 18.3645 2.67401 17.4975L3.27401 13.7475C3.30701 13.2475 3.52401 12.6145 3.92401 11.8475C4.42401 10.8815 4.69101 10.3305 4.72401 10.1975C4.82401 9.83046 5.05701 9.39746 5.42401 8.89746C5.85801 8.26446 6.34101 7.81446 6.87401 7.54746C8.07401 6.98046 9.00701 6.33046 9.67401 5.59746C10.574 4.76446 11.624 4.28146 12.824 4.14746C14.858 4.01446 16.307 3.86446 17.174 3.69746C17.674 3.59746 18.341 3.56446 19.174 3.59746C20.174 3.59746 20.924 3.58046 21.424 3.54746C22.024 3.51446 22.491 3.36446 22.824 3.09746C23.124 2.83046 23.457 2.69746 23.824 2.69746C24.391 2.69746 24.791 2.83046 25.024 3.09746C25.191 3.33046 25.274 3.73046 25.274 4.29746C25.274 4.86446 25.357 5.86446 25.524 7.29746C25.657 8.76446 25.774 9.61446 25.874 9.84746C26.007 10.1145 26.091 10.6805 26.124 11.5475Z" fill="#b5babe" fill-rule="evenodd" opacity="1" stroke="none"/>
<path d="M4.82401 28.2975C5.25801 29.3645 5.65701 30.5145 6.02401 31.7475C6.42401 33.1475 6.62401 34.1475 6.62401 34.7475C6.62401 35.9145 6.37401 37.3135 5.87401 38.9475C5.77401 39.3475 5.82401 39.7475 6.02401 40.1475C6.12401 40.3475 6.22401 40.5645 6.32401 40.7975C5.62401 41.1305 5.17401 41.2645 4.97401 41.1975C2.90701 40.2305 1.50701 39.3305 0.77401 38.4975C0.47401 36.8305 0.42401 35.5975 0.62401 34.7975L1.02401 32.7475C1.15701 31.7135 1.29101 29.9975 1.42401 27.5975L1.47401 25.7475C1.84101 25.9805 2.44001 26.2805 3.27401 26.6475C4.00701 27.0805 4.52401 27.6305 4.82401 28.2975Z" fill="#717679" fill-rule="evenodd" opacity="1" stroke="none"/>
<path d="M18.024 32.4975C18.424 31.4635 18.907 30.8475 19.474 30.6475C20.407 30.3475 20.974 30.4635 21.174 30.9975C21.341 31.3975 21.257 31.8475 20.924 32.3475C20.057 33.6805 19.157 34.2975 18.224 34.1975C17.724 34.1305 17.657 33.5645 18.024 32.4975Z" fill="url(#LinearGradient_14)" fill-rule="evenodd" opacity="1" stroke="none"/>
<path d="M16.524 37.3475C16.291 38.1475 16.024 38.4975 15.724 38.3975C15.324 38.2975 15.224 37.9635 15.424 37.3975C15.624 36.7975 16.007 36.4145 16.574 36.2475C16.807 36.1475 16.791 36.5145 16.524 37.3475Z" fill="url(#LinearGradient_15)" fill-rule="evenodd" opacity="1" stroke="none"/>
<path d="M7.47401 38.7975C7.67401 38.1645 7.99101 38.0305 8.42401 38.3975C8.82401 38.7305 9.00701 39.0305 8.97401 39.2975C8.94001 39.5975 8.64101 39.7475 8.07401 39.7475C7.47401 39.7475 7.27401 39.4305 7.47401 38.7975Z" fill="url(#LinearGradient_16)" fill-rule="evenodd" opacity="1" stroke="none"/>
<path d="M3.92401 32.8475C4.42401 32.8145 4.80701 32.9805 5.07401 33.3475C5.47401 33.9805 5.30701 35.0975 4.57401 36.6975L3.97401 36.9475C3.74101 37.0475 3.57401 36.6805 3.47401 35.8475C3.40701 34.8145 3.32401 34.0975 3.22401 33.6975C3.12401 33.1305 3.35701 32.8475 3.92401 32.8475Z" fill="url(#LinearGradient_17)" fill-rule="evenodd" opacity="1" stroke="none"/>
<path d="M22.924 44.7475C23.224 44.4475 23.757 44.1305 24.524 43.7975C25.024 43.5975 25.407 43.6475 25.674 43.9475C25.907 44.2475 25.924 44.5305 25.724 44.7975C25.357 45.2645 24.507 45.4305 23.174 45.2975C22.674 45.2645 22.591 45.0805 22.924 44.7475Z" fill="url(#LinearGradient_18)" fill-rule="evenodd" opacity="1" stroke="none"/>
<path d="M26.974 36.0975C27.574 36.0315 27.824 36.2815 27.724 36.8475C27.657 37.1475 27.491 37.5975 27.224 38.1975C27.091 38.4975 26.757 38.7145 26.224 38.8475C25.657 38.9475 25.224 38.8815 24.924 38.6475C24.591 38.4145 24.674 37.9635 25.174 37.2975C25.674 36.6315 26.274 36.2305 26.974 36.0975Z" fill="url(#LinearGradient_19)" fill-rule="evenodd" opacity="1" stroke="none"/>
<path d="M21.774 41.0975C22.107 40.3645 22.541 39.9475 23.074 39.8475C23.641 39.7815 23.874 40.0145 23.774 40.5475C23.707 41.1145 23.274 41.5305 22.474 41.7975C21.674 42.0645 21.441 41.8305 21.774 41.0975Z" fill="url(#LinearGradient_20)" fill-rule="evenodd" opacity="1" stroke="none"/>
<path d="M25.2741 4.29746C25.2741 4.86446 25.3571 5.86446 25.5241 7.29746C25.6571 8.76446 25.7741 9.61446 25.8741 9.84746C26.0071 10.1145 26.0911 10.6805 26.1241 11.5475C26.1911 12.4475 26.1571 13.0975 26.0241 13.4975C25.8571 14.0645 25.3741 14.9475 24.5741 16.1475C25.0401 17.2475 24.9911 18.2975 24.4241 19.2975C24.2241 19.6305 23.9071 20.3805 23.4741 21.5475C23.1411 22.4145 22.8241 22.9975 22.5241 23.2975C22.1571 23.6645 21.6911 24.4975 21.1241 25.7975C20.6241 26.9305 20.1571 27.5805 19.7241 27.7475C18.5571 28.5145 17.5241 29.1805 16.6241 29.7475C14.9571 30.8475 13.6571 31.3975 12.7241 31.3975C11.7571 31.3975 10.7241 31.1975 9.62411 30.7975L8.22411 30.1975C7.99111 28.9645 7.30711 27.9145 6.17411 27.0475C5.50711 26.5145 5.10811 25.9645 4.97411 25.3975C4.67411 24.1305 4.42411 23.2645 4.22411 22.7975C3.52411 21.3975 3.07411 20.4475 2.87411 19.9475C2.57411 19.1805 2.50711 18.3645 2.67411 17.4975L3.27411 13.7475C3.30711 13.2475 3.52411 12.6145 3.92411 11.8475C4.42411 10.8815 4.69111 10.3305 4.72411 10.1975C4.82411 9.83046 5.05711 9.39746 5.42411 8.89746C5.85711 8.26446 6.34111 7.81446 6.87411 7.54746C8.07411 6.98046 9.00711 6.33046 9.67411 5.59746C10.5741 4.76446 11.6241 4.28146 12.8241 4.14746C14.8571 4.01446 16.3071 3.86446 17.1741 3.69746C17.6741 3.59746 18.3411 3.56446 19.1741 3.59746C20.1741 3.59746 20.9241 3.58046 21.4241 3.54746C22.0241 3.51446 22.4911 3.36446 22.8241 3.09746C23.1241 2.83046 23.4571 2.69746 23.8241 2.69746C24.3901 2.69746 24.7901 2.83046 25.0241 3.09746C25.1911 3.33046 25.2741 3.73046 25.2741 4.29746Z" fill="url(#RadialGradient_2)" fill-rule="evenodd" opacity="1" stroke="none"/>
<path d="M28.674 28.4975C28.774 28.7305 28.807 29.2805 28.774 30.1475C28.741 30.9805 28.657 31.6805 28.524 32.2475C28.391 32.7805 28.191 33.1145 27.924 33.2475C27.691 33.3475 27.257 33.3305 26.624 33.1975C26.057 33.0975 25.757 32.5305 25.724 31.4975C25.691 30.6305 25.824 29.8305 26.124 29.0975C26.424 28.4305 26.824 27.9975 27.324 27.7975C27.891 27.5645 28.341 27.7975 28.674 28.4975Z" fill="url(#LinearGradient_21)" fill-rule="evenodd" opacity="1" stroke="none"/>
<path d="M23.824 4.39746C24.557 4.23046 24.774 4.61446 24.474 5.54746C24.207 6.48046 23.707 6.94746 22.974 6.94746C22.241 6.94746 21.991 6.58046 22.224 5.84746C22.457 5.08046 22.991 4.59746 23.824 4.39746Z" fill="url(#LinearGradient_22)" fill-rule="evenodd" opacity="1" stroke="none"/>
<path d="M3.47401 17.6975C2.70701 17.6645 2.39101 17.0475 2.52401 15.8475C2.62401 14.7475 2.90701 13.9975 3.37401 13.5975C3.77401 13.2645 4.17401 13.4475 4.57401 14.1475C4.97401 14.7475 5.17401 15.3305 5.17401 15.8975C5.17401 16.5645 5.10801 17.0145 4.97401 17.2475C4.74101 17.6145 4.24101 17.7645 3.47401 17.6975Z" fill="url(#LinearGradient_23)" fill-rule="evenodd" opacity="1" stroke="none"/>
<path d="M8.32401 23.8975C8.95701 23.3645 9.52401 23.6305 10.024 24.6975C10.491 25.7645 10.491 26.5805 10.024 27.1475C9.29101 28.1145 8.52401 27.9645 7.72401 26.6975C7.12401 25.6975 7.32401 24.7645 8.32401 23.8975Z" fill="url(#LinearGradient_24)" fill-rule="evenodd" opacity="1" stroke="none"/>
<path d="M9.37401 30.0475C9.60701 29.4145 10.057 29.0975 10.724 29.0975C11.624 29.0975 12.074 29.6975 12.074 30.8975C12.074 31.6305 11.724 32.1305 11.024 32.3975C10.324 32.6645 9.82401 32.4975 9.52401 31.8975C9.22401 31.2305 9.17401 30.6145 9.37401 30.0475Z" fill="url(#LinearGradient_25)" fill-rule="evenodd" opacity="1" stroke="none"/>
</g>
</g>
</g>
<g opacity="1">
<g opacity="1">
<path d="M26.224 17.1976C26.824 18.2976 26.957 19.4646 26.624 20.6976C26.291 21.9306 25.624 22.8976 24.624 23.5976C23.591 24.2646 22.507 24.4646 21.374 24.1976C20.241 23.8976 19.391 23.2146 18.824 22.1476C18.224 21.0476 18.091 19.8806 18.424 18.6476C18.757 17.4146 19.441 16.4476 20.474 15.7476C21.474 15.0806 22.54 14.8806 23.674 15.1476C24.807 15.4476 25.657 16.1306 26.224 17.1976Z" fill="#9fa4a7" fill-rule="evenodd" opacity="1" stroke="none"/>
<path d="M24.8242 17.1978C25.4572 17.8648 25.7742 18.6648 25.7742 19.5978C25.7742 20.5308 25.4572 21.3148 24.8242 21.9478C24.1572 22.6148 23.3742 22.9478 22.4742 22.9478C21.5412 22.9478 20.7572 22.6148 20.1242 21.9478C19.4912 21.3148 19.1742 20.5308 19.1742 19.5978C19.1742 18.6648 19.4902 17.8648 20.1242 17.1978C20.7572 16.5308 21.5412 16.1978 22.4742 16.1978C23.3742 16.1978 24.1572 16.5308 24.8242 17.1978Z" fill="#e5e9ea" fill-rule="evenodd" opacity="1" stroke="none"/>
</g>
<g opacity="1">
<path d="M15.0241 16.2978C15.8911 17.1978 16.3241 18.2978 16.3241 19.5978C16.3241 20.8648 15.8901 21.9648 15.0241 22.8978C14.1571 23.7978 13.1071 24.2478 11.8741 24.2478C10.6411 24.2478 9.59111 23.7978 8.72411 22.8978C7.85711 21.9648 7.42411 20.8648 7.42411 19.5978C7.42411 18.2978 7.85811 17.1978 8.72411 16.2978C9.59111 15.3978 10.6411 14.9478 11.8741 14.9478C13.1071 14.9478 14.1571 15.3978 15.0241 16.2978Z" fill="#9fa4a7" fill-rule="evenodd" opacity="1" stroke="none"/>
<path d="M14.2241 17.1978C14.8571 17.8648 15.1741 18.6648 15.1741 19.5978C15.1741 20.5308 14.8571 21.3148 14.2241 21.9478C13.5571 22.6148 12.7741 22.9478 11.8741 22.9478C10.9411 22.9478 10.1571 22.6148 9.52411 21.9478C8.89111 21.3148 8.57411 20.5308 8.57411 19.5978C8.57411 18.6648 8.89011 17.8648 9.52411 17.1978C10.1571 16.5308 10.9411 16.1978 11.8741 16.1978C12.7741 16.1978 13.5571 16.5308 14.2241 17.1978Z" fill="#e5e9ea" fill-rule="evenodd" opacity="1" stroke="none"/>
</g>
<g opacity="1">
<path d="M24.0242 18.0477C24.4242 18.4807 24.6242 18.9977 24.6242 19.5977C24.6242 20.1977 24.4242 20.7147 24.0242 21.1477C23.6242 21.5807 23.1412 21.7977 22.5742 21.7977C22.0072 21.7977 21.5242 21.5817 21.1242 21.1477C20.7242 20.7147 20.5242 20.1977 20.5242 19.5977C20.5242 18.9977 20.7242 18.4807 21.1242 18.0477C21.5242 17.6147 22.0072 17.3977 22.5742 17.3977C23.1412 17.3977 23.6242 17.6147 24.0242 18.0477Z" fill="#292a2c" fill-rule="evenodd" opacity="1" stroke="none"/>
<path d="M21.4242 18.6477C21.0242 19.3137 20.5912 19.5307 20.1242 19.2977C19.9242 19.1977 19.8242 19.0147 19.8242 18.7477C19.7912 18.4807 19.8572 18.1977 20.0242 17.8977C20.4242 17.2307 20.8572 17.0147 21.3242 17.2477C21.4912 17.3477 21.5912 17.5307 21.6242 17.7977C21.6572 18.0977 21.5912 18.3807 21.4242 18.6477Z" fill="#ffffff" fill-rule="evenodd" opacity="1" stroke="none"/>
</g>
<g opacity="1">
<path d="M13.3742 18.0474C13.7742 18.4804 13.9742 18.9974 13.9742 19.5974C13.9742 20.1974 13.7742 20.7144 13.3742 21.1474C12.9742 21.5804 12.4912 21.7974 11.9242 21.7974C11.3572 21.7974 10.8742 21.5804 10.4742 21.1474C10.0742 20.7134 9.87421 20.1974 9.87421 19.5974C9.87421 18.9974 10.0742 18.4804 10.4742 18.0474C10.8742 17.6134 11.3572 17.3974 11.9242 17.3974C12.4912 17.3974 12.9742 17.6144 13.3742 18.0474Z" fill="#292a2c" fill-rule="evenodd" opacity="1" stroke="none"/>
<path d="M11.0742 18.5474C10.6402 19.2144 10.2072 19.4304 9.77421 19.1974C9.37421 18.8974 9.34121 18.4144 9.67421 17.7474C10.1072 17.0804 10.5412 16.8804 10.9742 17.1474C11.1412 17.2474 11.2412 17.4304 11.2742 17.6974C11.3072 17.9974 11.2412 18.2804 11.0742 18.5474Z" fill="#ffffff" fill-rule="evenodd" opacity="1" stroke="none"/>
</g>
<g opacity="1">
<path d="M24.424 9.39756C25.224 9.63056 25.741 9.88056 25.974 10.1476C26.507 10.8146 26.774 11.6306 26.774 12.5976L26.874 14.7476C26.341 14.2806 25.94 14.0476 25.674 14.0476C24.707 13.9476 24.007 13.7806 23.574 13.5476C23.341 13.4146 22.857 13.2646 22.124 13.0976C21.057 12.8646 20.457 12.7306 20.324 12.6976C19.691 12.4976 19.174 12.2806 18.774 12.0476L18.374 11.7476C18.407 11.3476 18.507 10.9476 18.674 10.5476L20.074 9.84756C21.141 9.38056 21.907 9.13056 22.374 9.09756C22.974 9.06456 23.657 9.16456 24.424 9.39756Z" fill="#5c6165" fill-rule="evenodd" opacity="1" stroke="none"/>
<path d="M24.074 8.34756C24.507 8.64756 25.058 9.01456 25.724 9.44756C26.457 9.94756 26.807 10.5646 26.774 11.2976C26.741 11.8976 26.591 12.4476 26.324 12.9476L24.874 12.9976C24.541 12.9976 24.058 12.9146 23.424 12.7476C22.624 12.4806 22.124 12.3306 21.924 12.2976C19.857 12.1646 18.674 11.9806 18.374 11.7476C18.174 11.6146 18.124 11.2476 18.224 10.6476C18.357 9.98056 18.424 9.59756 18.424 9.49756C18.424 8.79756 18.574 8.34756 18.874 8.14756C19.041 8.01456 19.424 7.86456 20.024 7.69756C20.691 7.56456 21.224 7.51456 21.624 7.54756C22.391 7.58056 23.208 7.84756 24.074 8.34756Z" fill="#797e82" fill-rule="evenodd" opacity="1" stroke="none"/>
<path d="M24.074 8.34756C24.507 8.64756 25.058 9.01456 25.724 9.44756C26.191 9.74756 26.507 10.0806 26.674 10.4476L26.424 10.4976L25.724 10.5476L25.324 10.8976C24.024 10.5646 22.991 10.2146 22.224 9.84756C21.724 9.64756 21.041 9.54756 20.174 9.54756L18.974 9.64756L18.424 9.24756C18.591 8.61456 18.74 8.24756 18.874 8.14756C19.041 8.01456 19.424 7.86456 20.024 7.69756C20.691 7.56456 21.224 7.51456 21.624 7.54756C22.391 7.58056 23.208 7.84756 24.074 8.34756Z" fill="#c2c7ca" fill-rule="evenodd" opacity="1" stroke="none"/>
<path d="M23.924 8.74756C24.657 9.14756 25.491 9.73056 26.424 10.4976L26.024 11.7476C25.857 12.0806 25.641 12.2646 25.374 12.2976C25.074 12.2646 24.791 12.1806 24.524 12.0476C24.391 11.9476 24.224 11.8976 24.024 11.8976C23.757 11.8646 23.541 11.8146 23.374 11.7476C22.574 11.5476 21.674 11.4146 20.674 11.3476C20.041 11.3476 19.574 11.2306 19.274 10.9976C19.241 10.8306 19.207 10.6146 19.174 10.3476C19.174 9.88056 19.291 9.49756 19.524 9.19756C20.024 8.59756 20.791 8.26456 21.824 8.19756C22.357 8.16456 23.057 8.34756 23.924 8.74756Z" fill="#94999d" fill-rule="evenodd" opacity="1" stroke="none"/>
<path d="M19.974 8.74756C20.074 8.81356 20.057 9.06356 19.924 9.49756L19.474 10.9976C19.007 11.4306 18.591 11.5976 18.224 11.4976C18.157 11.1976 18.224 10.5306 18.424 9.49756L18.574 8.39756C18.707 8.23056 18.824 8.16456 18.924 8.19756C18.99 8.19756 19.157 8.29756 19.424 8.49756C19.591 8.63056 19.774 8.71456 19.974 8.74756Z" fill="#c2c7ca" fill-rule="evenodd" opacity="1" stroke="none"/>
<path d="M19.574 10.1976C19.807 9.46456 19.957 8.99756 20.024 8.79756C20.091 8.93056 20.058 9.16456 19.924 9.49756L19.474 10.9976C19.007 11.3976 18.607 11.5636 18.274 11.4976C18.808 11.2976 19.241 10.8646 19.574 10.1976Z" fill="#c2c7ca" fill-rule="evenodd" opacity="1" stroke="none"/>
</g>
<g opacity="1">
<path d="M6.79891 16.6477C7.00191 16.6187 7.17691 16.5767 7.32391 16.5227C7.18891 16.5757 7.03091 16.6177 6.84891 16.6477C6.84891 16.6477 6.79891 16.6477 6.79891 16.6477Z" fill="#e1cbb8" fill-rule="evenodd" opacity="1" stroke="none"/>
<path d="M6.79891 16.6477L6.77391 16.6477L6.67391 16.5477L6.69891 16.5477L6.64891 16.4977C6.57091 16.4347 6.49591 16.3507 6.42391 16.2477C6.16291 15.8407 6.11191 15.3077 6.27391 14.6477C6.32391 14.4357 6.37391 14.2527 6.42391 14.0977C6.49691 13.8577 6.57991 13.6917 6.67391 13.5977C7.60691 12.3307 8.30691 11.5807 8.77391 11.3477C9.90691 10.8147 10.9239 10.5807 11.8239 10.6477C12.1109 10.6787 12.3779 10.7457 12.6239 10.8477L12.3239 11.3977C11.9909 11.0307 11.4069 10.9647 10.5739 11.1977C9.74091 11.4307 8.89091 12.0647 8.02391 13.0977C7.88591 13.2637 7.73591 13.4627 7.57391 13.6977L7.62391 14.9477L7.92391 15.8977L7.77391 16.1227L7.72391 16.1977C7.70591 16.2287 7.68991 16.2617 7.67391 16.2977L7.62391 16.3477L7.32391 16.5227C7.17691 16.5767 7.00191 16.6187 6.79891 16.6477Z" fill="#c2c7ca" fill-rule="evenodd" opacity="1" stroke="none"/>
<path d="M7.77391 16.1227L7.92391 15.8977L7.62391 14.9477L7.57391 13.6977C7.73591 13.4627 7.88591 13.2627 8.02391 13.0977C8.89091 12.0647 9.74091 11.4307 10.5739 11.1977C11.4069 10.9647 11.9909 11.0307 12.3239 11.3977L12.2239 12.6977C12.2239 13.0647 12.1409 13.4147 11.9739 13.7477C11.9079 13.8807 11.4739 14.1307 10.6739 14.4977C9.47391 15.0307 8.60691 15.4977 8.07391 15.8977C7.95591 15.9897 7.85591 16.0647 7.77391 16.1227Z" fill="#94999d" fill-rule="evenodd" opacity="1" stroke="none"/>
<path d="M11.8239 10.6477C12.1949 10.6817 12.4869 10.7477 12.6989 10.8477C12.9169 10.9497 13.0579 11.0827 13.1239 11.2477C13.6899 12.7807 13.6739 13.7977 13.0739 14.2977C12.8069 14.4977 12.2739 14.7317 11.4739 14.9977C10.4739 15.3647 9.67391 15.6977 9.07391 15.9977C8.17391 16.4647 7.55691 16.7147 7.22391 16.7477C7.08991 16.7477 6.96491 16.7147 6.84891 16.6477C7.03091 16.6177 7.18891 16.5757 7.32391 16.5227L7.62391 16.3477L7.67391 16.2977C7.68991 16.2617 7.70591 16.2287 7.72391 16.1977L7.77391 16.1227C7.85591 16.0647 7.95591 15.9897 8.07391 15.8977C8.60691 15.4977 9.47391 15.0307 10.6739 14.4977C11.4739 14.1307 11.9069 13.8807 11.9739 13.7477C12.1409 13.4147 12.2239 13.0647 12.2239 12.6977L12.3239 11.3977L12.6239 10.8477C12.3779 10.7457 12.1109 10.6787 11.8239 10.6477Z" fill="#797e82" fill-rule="evenodd" opacity="1" stroke="none"/>
<path d="M6.77391 16.6477L6.84891 16.6477C6.96491 16.7147 7.08991 16.7477 7.22391 16.7477C7.55691 16.7147 8.17391 16.4647 9.07391 15.9977C9.67391 15.6977 10.4739 15.3647 11.4739 14.9977C12.2739 14.7307 12.8069 14.4977 13.0739 14.2977C13.6739 13.7977 13.6909 12.7807 13.1239 11.2477C13.0579 11.0827 12.9169 10.9497 12.6989 10.8477C12.9739 10.8757 13.2319 11.0257 13.4739 11.2977C13.7409 11.6307 13.9239 12.0307 14.0239 12.4977C14.1569 13.1307 14.3569 13.7477 14.6239 14.3477C14.4569 14.8807 14.1069 15.2147 13.5739 15.3477C11.8409 15.8147 10.9569 16.0477 10.9239 16.0477C10.7909 16.0477 10.3909 16.1647 9.72391 16.3977C9.05691 16.6307 8.52391 16.7647 8.12391 16.7977C7.72391 16.8307 7.37391 16.8147 7.07391 16.7477C7.07391 16.7477 6.77391 16.6477 6.77391 16.6477Z" fill="#5c6165" fill-rule="evenodd" opacity="1" stroke="none"/>
</g>
</g>
</g>
</g>
</svg>
